<svg xmlns="http://www.w3.org/2000/svg" viewBox="0 0 220 220" role="img" aria-label="White rose">
  <defs>
    <radialGradient id="petal" cx="50%" cy="38%" r="65%">
      <stop offset="0" stop-color="#fff"/>
      <stop offset="0.72" stop-color="#fffaf8"/>
      <stop offset="1" stop-color="#eadde1"/>
    </radialGradient>
  </defs>
  <g fill="url(#petal)" stroke="#d8c4cb" stroke-width="2.2">
    <ellipse cx="110" cy="67" rx="34" ry="48" transform="rotate(-5 110 67)"/>
    <ellipse cx="78" cy="88" rx="34" ry="48" transform="rotate(-48 78 88)"/>
    <ellipse cx="142" cy="88" rx="34" ry="48" transform="rotate(48 142 88)"/>
    <ellipse cx="88" cy="126" rx="38" ry="50" transform="rotate(-118 88 126)"/>
    <ellipse cx="132" cy="126" rx="38" ry="50" transform="rotate(118 132 126)"/>
    <ellipse cx="110" cy="108" rx="34" ry="28"/>
    <path d="M94 104c10-18 39-16 41 4 1 13-14 23-26 20-13-3-22-13-15-24Z"/>
  </g>
  <path d="M111 145c-2 21 3 42 10 61" fill="none" stroke="#8aa27f" stroke-width="7" stroke-linecap="round"/>
  <path d="M119 177c18-5 29 3 34 13-17 5-29 1-34-13Z" fill="#a9bd9d" stroke="#809678" stroke-width="2"/>
</svg>
